#!OML:ASF E:\Style3\Style3.ASF
:FULLY-SPECIFIED
:DEGREES
1622
root 0.134355 17.0575 0.0617533 -642.689 142.225 -710.396
lowerback 212.264 178.396 170.497
upperback 1.12952 -1.59515 -4.28221
thorax -15.3408 0.0188039 1.01735
lowerneck -1.65061 0.532047 -5.83919
upperneck -19.8434 2.95604 8.59481
head -5.87678 1.8658 3.53503
rclavicle 3.33958e-014 -5.70015e-014
rhumerus -71.305 28.8828 -91.2072
rradius 75.0052
rwrist -13.998
rhand 13.577 22.6079
rfingers 7.12502
rthumb 38.5105 -3.05057
lclavicle 3.33958e-014 -5.70015e-014
lhumerus -68.1165 -17.2758 81.0357
lradius 82.7377
lwrist 57.324
lhand 22.6572 40.5941
lfingers 7.12502
lthumb 47.0019 63.2595
rfemur -72.9812 -5.66838 42.1188
rtibia 20.2625
rfoot -6.85802 0.43866
rtoes 5.00043
lfemur -87.494 -12.1937 71.4163
ltibia 16.8307
lfoot -12.3576 52.7824
ltoes -21.8949
1623
root 0.133626 17.0423 0.0496222 -642.883 142.819 -711.25
lowerback 211.967 178.598 170.882
upperback 1.07753 -1.70718 -4.43581
thorax -15.2923 -0.0626877 0.696599
lowerneck -1.45707 0.406658 -5.51719
upperneck -19.9672 2.7869 8.52247
head -5.93196 1.76278 3.46403
rclavicle 1.11319e-014 4.32357e-015
rhumerus -71.3931 28.3973 -91.1435
rradius 75.1007
rwrist -14.0348
rhand 13.5629 22.5737
rfingers 7.12502
rthumb 38.4973 -3.08844
lclavicle 1.11319e-014 4.32357e-015
lhumerus -68.0216 -17.8003 81.171
lradius 82.8534
lwrist 57.3351
lhand 22.4428 40.7189
lfingers 7.12502
lthumb 46.8036 63.4712
rfemur -73.4534 -6.21365 42.285
rtibia 20.1339
rfoot -7.54891 0.542108
rtoes 1.4912
lfemur -88.3519 -11.8095 72.0328
ltibia 16.8474
lfoot -11.7132 53.0284
ltoes -22.5363
1624
root 0.139575 17.0293 0.0389166 -643.026 143.335 -711.967
lowerback 211.637 179.098 171.303
upperback 1.03626 -2.19422 -4.72505
thorax -15.2048 -0.309092 0.360349
lowerneck -1.4592 0.502182 -5.67021
upperneck -19.97 2.99947 8.9074
head -5.95242 1.86277 3.604
rclavicle -3.18055e-015 5.17834e-014
rhumerus -71.2939 28.5618 -91.5009
rradius 75.1891
rwrist -14.3117
rhand 14.034 22.0837
rfingers 7.12502
rthumb 38.9416 -3.45298
lclavicle -3.18055e-015 5.17834e-014
lhumerus -67.9379 -17.5142 80.7714
lradius 82.7713
lwrist 57.146
lhand 22.6558 40.6948
lfingers 7.12502
lthumb 47.0007 63.3607
rfemur -73.8467 -6.68955 42.4972
rtibia 20.041
rfoot -7.72473 0.571002
rtoes -0.466856
lfemur -88.9842 -11.3875 72.0641
ltibia 16.8941
lfoot -10.5191 52.821
ltoes -23.7127
1625
root 0.180014 17.0503 0.0314157 -642.421 143.493 -710.42
lowerback 211.637 178.316 169.965
upperback 0.965396 -1.62948 -4.31051
thorax -15.2322 0.034644 1.2846
lowerneck -1.63891 0.630119 -6.18181
upperneck -19.8495 3.16496 8.95785
head -5.90328 1.98164 3.70047
rclavicle -2.38542e-014 -8.88319e-014
rhumerus -71.2784 29.3107 -91.2537
rradius 75.4939
rwrist -14.7324
rhand 14.6565 21.1365
rfingers 7.12502
rthumb 39.5282 -4.23012
lclavicle -2.38542e-014 -8.88319e-014
lhumerus -67.833 -16.6594 81.0335
lradius 82.5522
lwrist 56.83
lhand 22.9224 40.6675
lfingers 7.12502
lthumb 47.2472 63.2241
rfemur -72.832 -6.1254 43.623
rtibia 19.7225
rfoot -7.4701 1.61849
rtoes 0.125711
lfemur -87.8091 -11.9663 72.5426
ltibia 17.0924
lfoot -11.734 53.1478
ltoes -23.023
1626
root 0.201142 17.0504 0.0200311 -642.308 143.887 -710.197
lowerback 211.438 178.008 170.244
upperback 0.999037 -1.16802 -4.78936
thorax -15.1709 0.197024 0.426071
lowerneck -1.45347 0.316627 -5.18327
upperneck -20.0273 2.77797 8.86919
head -5.94875 1.73233 3.51812
rclavicle -2.38542e-014 2.92959e-014
rhumerus -71.2593 27.949 -91.5291
rradius 75.4221
rwrist -14.421
rhand 14.2725 21.3327
rfingers 7.12502
rthumb 39.1665 -4.13946
lclavicle -2.38542e-014 2.92959e-014
lhumerus -67.405 -17.9578 80.761
lradius 82.4202
lwrist 56.8215
lhand 23.0074 40.816
lfingers 7.12502
lthumb 47.3257 63.3374
rfemur -72.3731 -6.12847 44.1017
rtibia 19.2172
rfoot -7.03563 1.94437
rtoes 1.64197
lfemur -87.9223 -12.1101 73.4081
ltibia 17.374
lfoot -13.3763 53.6204
ltoes -21.7326
1627
root 0.227876 17.0522 0.00742409 -642.104 144.211 -709.551
lowerback 211.487 176.533 172.272
upperback 1.38232 1.17338 -7.12704
thorax -14.9054 0.996073 -4.17769
lowerneck -1.86446 -1.53877 0.772633
upperneck -20.5341 0.367663 7.68682
head -5.90174 0.25519 2.22954
rclavicle -5.80451e-014 8.90804e-015
rhumerus -70.578 19.6753 -91.9228
rradius 74.9641
rwrist -13.3125
rhand 13.8368 22.5738
rfingers 7.12502
rthumb 38.7556 -3.01575
lclavicle -5.80451e-014 8.90804e-015
lhumerus -65.2673 -26.0378 79.3696
lradius 82.3087
lwrist 57.4899
lhand 23.17 40.7886
lfingers 7.12502
lthumb 47.4759 63.2423
rfemur -71.481 -5.99898 44.7999
rtibia 18.4575
rfoot -6.02932 2.50762
rtoes 3.78104
lfemur -87.7385 -12.4621 74.2256
ltibia 17.7306
lfoot -14.6716 54.1572
ltoes -20.8126
1628
root 0.249964 17.0603 -0.0072069 -642.112 144.653 -709.29
lowerback 211.301 177.163 170.181
upperback 1.15218 -0.138087 -5.32422
thorax -15.0024 0.621925 -0.547154
lowerneck -1.61185 -0.168152 -3.55885
upperneck -20.3221 2.20036 8.56637
head -5.96087 1.38581 3.16924
rclavicle -7.95139e-016 1.01803e-013
rhumerus -70.8458 25.8653 -91.5468
rradius 74.9978
rwrist -13.9707
rhand 13.9545 22.9107
rfingers 7.12502
rthumb 38.8667 -2.64741
lclavicle -7.95139e-016 1.01803e-013
lhumerus -66.6573 -20.0897 80.5614
lradius 82.3368
lwrist 56.7708
lhand 23.4223 40.4888
lfingers 7.12502
lthumb 47.7088 62.8364
rfemur -70.8696 -6.105 45.4331
rtibia 17.9602
rfoot -6.28444 2.96616
rtoes 2.53725
lfemur -87.5797 -12.652 74.522
ltibia 17.7687
lfoot -14.4991 54.1914
ltoes -21.0031
1629
root 0.269775 17.0717 -0.0239372 -642.382 145.127 -709.388
lowerback 211.401 176.973 169.964
upperback 1.14485 0.0335954 -5.17106
thorax -15.0557 0.715528 -0.340337
lowerneck -1.43828 -0.211864 -3.63177
upperneck -20.4593 2.14874 8.57999
head -6.03097 1.36217 3.18924
rclavicle -3.33958e-014 4.83792e-014
rhumerus -70.8698 25.7429 -91.342
rradius 75.0368
rwrist -13.9016
rhand 13.8304 22.7792
rfingers 7.12502
rthumb 38.7496 -2.81206
lclavicle -3.33958e-014 4.83792e-014
lhumerus -66.6835 -20.222 80.9098
lradius 82.3521
lwrist 56.7551
lhand 23.5545 40.4026
lfingers 7.12502
lthumb 47.8308 62.694
rfemur -70.3306 -6.30047 45.619
rtibia 17.491
rfoot -6.11741 2.98487
rtoes 3.52099
lfemur -87.5608 -12.7646 74.2687
ltibia 17.7125
lfoot -13.1257 53.788
ltoes -22.058
1630
root 0.292649 17.0884 -0.0398946 -642.695 145.559 -709.458
lowerback 211.553 177.016 170.132
upperback 1.15977 0.000486756 -5.38413
thorax -15.1106 0.690213 -0.654257
lowerneck -1.51142 -0.226328 -3.48345
upperneck -20.3173 2.17456 8.80086
head -5.97511 1.3568 3.23212
rclavicle 1.90833e-014 -3.69243e-014
rhumerus -70.7941 25.4862 -91.6492
rradius 75.0475
rwrist -13.8257
rhand 13.8822 22.5434
rfingers 7.12502
rthumb 38.7984 -3.0341
lclavicle 1.90833e-014 -3.69243e-014
lhumerus -66.7024 -20.3715 80.6209
lradius 82.3622
lwrist 57.1225
lhand 24.1771 40.118
lfingers 7.12502
lthumb 48.4046 62.1398
rfemur -69.902 -6.37348 45.5478
rtibia 17.4099
rfoot -5.76758 2.84602
rtoes 5.90251
lfemur -87.3442 -12.9842 74.0092
ltibia 17.3814
lfoot -11.8439 53.4591
ltoes -22.9835
